<svg width="31" height="20" viewBox="0 0 31 20" fill="none" xmlns="http://www.w3.org/2000/svg">
<path d="M13.8089 20H17.1423C18.0589 20 18.8089 19.25 18.8089 18.3333C18.8089 17.4167 18.0589 16.6667 17.1423 16.6667H13.8089C12.8923 16.6667 12.1423 17.4167 12.1423 18.3333C12.1423 19.25 12.8923 20 13.8089 20ZM0.475586 1.66667C0.475586 2.58333 1.22559 3.33333 2.14225 3.33333H28.8089C29.7256 3.33333 30.4756 2.58333 30.4756 1.66667C30.4756 0.75 29.7256 0 28.8089 0H2.14225C1.22559 0 0.475586 0.75 0.475586 1.66667ZM7.14225 11.6667H23.8089C24.7256 11.6667 25.4756 10.9167 25.4756 10C25.4756 9.08333 24.7256 8.33333 23.8089 8.33333H7.14225C6.22559 8.33333 5.47559 9.08333 5.47559 10C5.47559 10.9167 6.22559 11.6667 7.14225 11.6667Z" fill="black"/>
</svg>
