<?xml version="1.0" standalone="no"?>
<!DOCTYPE svg PUBLIC "-//W3C//DTD SVG 20010904//EN"
 "http://www.w3.org/TR/2001/REC-SVG-20010904/DTD/svg10.dtd">
<svg version="1.0" xmlns="http://www.w3.org/2000/svg"
 width="2419.000000pt" height="2477.000000pt" viewBox="0 0 2419.000000 2477.000000"
 preserveAspectRatio="xMidYMid meet">

<g transform="translate(0.000000,2477.000000) scale(0.100000,-0.100000)"
fill="#000000" stroke="none">
<path d="M11691 17309 c-26 -43 -26 -47 1 -51 29 -4 36 -37 12 -55 -22 -16
-61 -17 -66 -2 -2 6 -14 -12 -28 -40 -13 -28 -21 -53 -19 -55 6 -7 207 28 216
38 11 11 17 166 6 177 -5 5 -30 12 -55 15 -45 6 -48 5 -67 -27z"/>
<path d="M11890 17145 c0 -40 6 -42 39 -14 26 21 26 21 -6 38 -31 16 -33 15
-33 -24z"/>
<path d="M13897 16996 c-63 -17 -66 -22 -22 -40 78 -33 135 -99 135 -157 0
-71 -91 -129 -179 -114 -81 14 -161 84 -161 144 l-1 26 -20 -25 c-34 -40 -76
-130 -89 -193 -11 -49 -9 -127 15 -551 l29 -494 28 -6 c31 -6 48 -48 31 -74
-7 -12 -36 -33 -50 -38 -2 0 10 -218 27 -485 35 -594 39 -608 167 -730 66 -63
134 -102 220 -124 65 -18 164 -14 1018 40 127 8 244 15 261 15 28 0 30 2 26
29 -6 43 13 71 49 71 35 0 79 -39 79 -70 0 -17 6 -20 39 -20 78 0 78 -5 -27
206 -53 107 -99 194 -103 194 -3 0 -12 -21 -20 -47 -15 -47 -15 -48 23 -121
21 -40 38 -80 38 -88 0 -20 -158 -21 -166 0 -3 8 0 42 6 76 6 34 9 64 7 66 -2
2 -76 -11 -163 -30 -181 -39 -251 -49 -258 -38 -6 10 39 141 52 154 6 6 39 -6
86 -32 43 -23 79 -41 81 -39 23 24 81 124 91 158 21 65 19 68 -36 76 -27 4
-50 10 -50 13 0 14 45 142 50 142 3 0 21 -28 39 -62 85 -158 144 -258 151
-258 4 0 13 14 20 30 7 17 19 30 26 30 9 0 -11 51 -59 148 -140 279 -143 300
-44 269 l53 -17 187 -388 c103 -213 187 -391 187 -394 0 -4 -12 -14 -27 -23
-27 -15 -24 -16 57 -11 47 3 138 8 203 12 l119 7 -6 33 c-10 49 2 81 31 89 32
8 53 -10 53 -44 0 -14 3 -37 7 -50 5 -21 10 -22 47 -17 118 19 270 135 327
251 32 65 58 190 43 204 -5 5 -40 19 -79 32 -65 22 -68 24 -40 30 17 4 51 7
77 8 l46 1 -5 43 c-3 23 -8 44 -10 47 -3 3 -111 6 -241 7 -236 3 -238 3 -340
35 -89 28 -102 35 -100 53 3 20 9 20 341 23 l337 2 0 50 c0 59 26 55 -245 38
-104 -6 -202 -8 -218 -4 -27 6 -27 7 -11 37 8 17 13 33 11 36 -7 7 -47 -16
-47 -27 0 -12 -53 -40 -75 -40 -9 0 -27 11 -41 25 -22 22 -34 25 -92 25 -37 0
-89 -3 -117 -6 -44 -5 -50 -9 -51 -30 -1 -13 -5 -35 -8 -49 -6 -23 -7 -23 -44
-11 -33 11 -37 17 -40 50 -2 20 -6 35 -10 32 -4 -2 -63 -6 -132 -10 -69 -3
-177 -9 -240 -12 -190 -9 -307 32 -418 150 -27 29 -59 71 -71 94 -11 22 -25
43 -31 47 -15 9 -130 144 -130 153 0 4 23 23 51 42 l51 34 -7 111 c-4 60 -11
115 -16 121 -5 6 -6 38 -3 70 3 32 -4 211 -15 396 -17 273 -24 348 -40 394
-51 145 -167 256 -310 298 -66 19 -245 20 -314 2z m423 -265 c26 -49 0 -91
-55 -91 -34 0 -65 28 -65 57 0 46 98 73 120 34z m-283 -1406 c50 -21 72 -42
94 -90 47 -101 3 -307 -88 -415 -36 -43 -116 -80 -173 -80 -102 0 -180 91
-180 211 0 69 36 199 73 262 60 103 180 151 274 112z m1501 -418 l-3 -40 78
-24 c42 -13 77 -28 77 -34 0 -6 -7 -36 -16 -66 -9 -30 -14 -57 -11 -59 3 -3
30 -8 61 -11 31 -3 59 -10 62 -15 5 -7 -27 -106 -42 -130 -7 -11 -127 139
-205 253 -51 77 -119 192 -119 204 0 2 27 -6 61 -17 l60 -20 -3 -41z m-610
-23 c17 -7 32 -19 32 -27 0 -19 -98 -109 -113 -104 -15 5 -20 126 -5 144 11
14 26 12 86 -13z m901 -50 c-17 -21 -60 -17 -86 8 -42 39 -29 49 37 26 50 -16
59 -23 49 -34z m-737 -521 c40 -36 10 -103 -45 -103 -64 0 -89 61 -41 99 32
25 61 27 86 4z"/>
<path d="M13915 15235 c-28 -28 -31 -53 -10 -81 26 -34 19 -61 -20 -74 -20 -7
-43 -23 -52 -37 -15 -22 -15 -27 0 -59 16 -33 16 -37 -4 -76 -21 -40 -21 -41
-1 -67 39 -53 113 -32 163 47 63 99 90 267 52 322 -39 57 -88 66 -128 25z"/>
<path d="M11902 16938 c-18 -18 -14 -46 7 -58 28 -14 66 18 57 48 -8 24 -44
30 -64 10z"/>
<path d="M13740 16860 c-55 -55 17 -120 133 -120 74 0 106 36 77 89 -25 47
-172 69 -210 31z"/>
<path d="M11601 16853 c-12 -22 2 -60 36 -95 29 -30 38 -28 74 23 l20 28 -42
31 c-47 34 -74 38 -88 13z"/>
<path d="M11438 16783 c-6 -16 -25 -73 -44 -128 l-33 -100 29 -14 c17 -8 31
-13 33 -10 9 12 87 236 87 250 0 17 -19 29 -46 29 -8 0 -19 -12 -26 -27z"/>
<path d="M11877 16766 c-19 -40 -15 -46 30 -46 37 0 40 8 18 50 -20 38 -28 38
-48 -4z"/>
<path d="M12206 16664 c-60 -49 -64 -55 -41 -74 11 -9 20 -8 42 8 49 35 86 80
80 96 -9 24 -20 20 -81 -30z"/>
<path d="M11896 16616 c-22 -34 -20 -56 4 -56 26 0 37 -27 19 -45 -8 -8 -27
-17 -42 -21 -23 -5 -29 -3 -34 15 -7 26 -24 27 -53 3 -19 -16 -21 -24 -15 -60
8 -48 10 -49 128 -32 121 18 118 15 115 122 l-3 93 -51 3 c-45 3 -53 0 -68
-22z"/>
<path d="M12090 16445 c0 -41 5 -43 45 -11 l30 24 -28 11 c-42 16 -47 14 -47
-24z"/>
<path d="M11340 16445 l-23 -24 27 -11 c42 -16 49 -13 41 18 -10 41 -19 45
-45 17z"/>
<path d="M11587 16363 c-19 -60 -38 -123 -41 -140 -7 -30 -5 -33 17 -33 22 0
27 11 65 127 30 93 38 131 30 140 -24 29 -38 11 -71 -94z"/>
<path d="M9255 16401 c-19 -8 -18 -9 5 -12 28 -4 41 -46 18 -60 -22 -14 -56
-10 -67 8 -8 14 -15 16 -38 8 -22 -8 -29 -17 -31 -45 -2 -19 3 -43 10 -52 12
-16 20 -17 112 -2 55 8 106 19 113 26 20 16 18 124 -3 132 -22 8 -95 6 -119
-3z"/>
<path d="M11281 16343 c-19 -8 -62 -106 -51 -117 5 -5 31 -11 58 -14 l49 -4 7
48 c9 68 -17 105 -63 87z"/>
<path d="M9460 16269 l0 -40 30 21 c37 26 37 33 5 48 -36 16 -35 17 -35 -29z"/>
<path d="M8998 16279 c-16 -9 -88 -211 -88 -245 0 -15 31 -28 40 -17 4 4 26
63 48 130 30 91 37 125 28 132 -7 6 -17 6 -28 0z"/>
<path d="M11911 16126 c-18 -21 -8 -54 29 -96 l30 -35 30 35 c36 42 37 49 1
77 -39 30 -74 38 -90 19z"/>
<path d="M9470 16061 c-18 -34 10 -68 45 -55 17 7 30 47 20 63 -11 18 -54 12
-65 -8z"/>
<path d="M11751 16063 c-5 -10 -25 -67 -45 -128 -35 -103 -36 -111 -19 -123
34 -24 46 -9 92 117 44 119 45 124 26 137 -25 19 -42 18 -54 -3z"/>
<path d="M9183 15993 c-23 -9 -14 -57 18 -96 17 -20 34 -37 38 -37 4 0 20 17
34 37 25 35 26 38 9 56 -18 20 -65 48 -79 46 -4 0 -14 -3 -20 -6z"/>
<path d="M8992 15858 c-56 -155 -59 -169 -37 -184 10 -8 24 -14 30 -14 7 0 33
57 59 127 44 119 46 128 30 140 -38 28 -51 16 -82 -69z"/>
<path d="M9456 15902 c-23 -45 -20 -52 19 -52 41 0 46 20 16 59 l-19 24 -16
-31z"/>
<path d="M10919 15917 c-15 -11 -15 -15 6 -41 17 -21 28 -27 44 -21 25 8 27
23 5 53 -17 25 -31 27 -55 9z"/>
<path d="M11247 15883 c-13 -12 -7 -51 8 -57 31 -12 67 27 50 54 -7 11 -48 14
-58 3z"/>
<path d="M10823 15873 c-16 -6 -17 -49 -2 -58 5 -4 21 -4 34 -1 21 5 22 8 12
36 -11 29 -19 34 -44 23z"/>
<path d="M10691 15809 c-7 -23 -10 -43 -7 -46 12 -13 49 12 62 43 18 44 18 44
-14 44 -25 0 -30 -6 -41 -41z"/>
<path d="M9810 15819 c-83 -69 -93 -81 -77 -97 14 -13 18 -13 39 0 46 30 89
78 86 94 -5 25 -20 26 -48 3z"/>
<path d="M10396 15812 c-21 -40 -14 -52 30 -52 41 0 43 13 10 55 l-23 29 -17
-32z"/>
<path d="M11028 15820 c-20 -11 -39 -24 -43 -29 -7 -12 52 -81 69 -81 22 0 76
65 76 92 0 42 -42 49 -102 18z"/>
<path d="M9987 15783 c-22 -21 8 -133 35 -133 6 0 26 11 45 26 37 28 35 39
-13 87 -26 26 -53 34 -67 20z"/>
<path d="M9467 15741 c-23 -40 -21 -51 9 -51 22 0 25 -4 22 -27 -2 -21 -10
-29 -36 -37 -33 -9 -44 -4 -55 28 -2 5 -18 1 -36 -10 -29 -17 -32 -22 -26 -54
4 -19 11 -39 15 -44 14 -14 207 13 221 30 7 8 14 47 17 87 5 89 -7 107 -72
107 -35 0 -44 -4 -59 -29z"/>
<path d="M11650 15715 c-27 -29 -25 -32 19 -41 32 -7 33 -6 26 17 -15 48 -20
51 -45 24z"/>
<path d="M10070 15649 c-19 -12 -37 -23 -39 -24 -6 -6 43 -85 53 -85 24 0 76
25 76 37 0 24 -32 93 -44 93 -6 0 -27 -10 -46 -21z"/>
<path d="M11425 15591 c-18 -37 -10 -51 30 -51 42 0 46 14 16 50 l-28 34 -18
-33z"/>
<path d="M11576 15596 c-20 -22 -50 -95 -42 -103 5 -6 101 -21 105 -17 2 2 6
30 9 61 4 46 2 59 -14 70 -25 18 -32 17 -58 -11z"/>
<path d="M9670 15575 c0 -32 2 -35 18 -26 10 5 24 17 31 25 11 13 9 17 -14 26
-36 14 -35 14 -35 -25z"/>
<path d="M8930 15591 c0 -5 6 -14 14 -20 12 -10 13 -8 9 8 -5 21 -23 30 -23
12z"/>
<path d="M9185 15566 c-8 -19 -20 -56 -27 -81 -11 -39 -10 -47 2 -55 25 -16
33 -7 58 68 19 58 21 76 12 87 -19 23 -30 18 -45 -19z"/>
<path d="M10291 15561 c-26 -26 -36 -84 -21 -121 22 -53 83 -77 137 -55 64 27
63 107 -3 164 -41 36 -84 41 -113 12z m84 -57 c25 -25 15 -58 -18 -62 -21 -3
-29 2 -36 20 -17 46 20 75 54 42z"/>
<path d="M10869 15548 c-14 -27 -79 -218 -79 -233 0 -11 49 -39 56 -33 1 2 23
59 48 127 47 128 48 143 6 154 -14 3 -24 -2 -31 -15z"/>
<path d="M11298 15502 c-31 -19 -35 -30 -13 -38 19 -8 19 -38 0 -54 -11 -9
-25 -10 -48 -4 -25 8 -33 16 -35 37 -2 15 -9 27 -15 27 -25 0 -57 -13 -57 -22
0 -5 -9 -21 -20 -35 -11 -14 -20 -41 -20 -59 0 -47 29 -74 80 -74 22 0 40 3
40 8 0 16 -16 29 -42 36 -19 4 -28 13 -28 26 0 18 5 18 85 -12 46 -17 91 -28
99 -25 15 6 86 126 86 145 0 10 -68 62 -80 62 -3 0 -17 -8 -32 -18z"/>
<path d="M10666 15482 c-9 -8 -7 -28 5 -59 l11 -28 29 34 c16 19 27 36 25 38
-8 8 -65 21 -70 15z"/>
<path d="M10532 15445 c-18 -39 -15 -45 21 -38 42 8 41 7 22 37 -22 32 -29 33
-43 1z"/>
<path d="M9782 15338 c-28 -28 -1 -75 37 -63 11 3 23 15 26 26 12 38 -35 65
-63 37z"/>
<path d="M11027 15294 c-3 -3 1 -20 8 -37 11 -26 10 -38 -6 -86 -32 -93 -49
-152 -41 -148 56 26 60 31 82 103 l24 75 -22 14 c-17 12 -20 22 -15 50 4 27 2
35 -9 35 -8 0 -17 -3 -21 -6z"/>
<path d="M9500 15266 c0 -6 75 -46 86 -46 4 0 -4 8 -17 19 -25 19 -69 36 -69
27z"/>
<path d="M11153 15215 c-29 -20 -47 -84 -33 -119 10 -28 17 -31 40 -16 9 6 15
24 15 47 0 31 4 39 21 41 11 2 27 -5 35 -14 12 -14 10 -19 -14 -38 -15 -12
-27 -26 -27 -32 0 -6 16 -25 35 -44 l35 -34 35 34 c50 48 53 66 16 102 -17 17
-31 34 -31 39 0 14 -62 49 -85 49 -11 0 -30 -7 -42 -15z"/>
<path d="M9765 15170 c-19 -36 -10 -50 33 -50 27 0 28 16 3 54 l-19 29 -17
-33z"/>
<path d="M11460 15182 c-29 -23 -17 -54 19 -50 20 2 27 9 29 29 4 34 -20 44
-48 21z"/>
<path d="M16459 15140 c24 -21 41 -19 41 6 0 9 -11 14 -32 14 l-33 -1 24 -19z"/>
<path d="M16233 15133 c16 -16 18 -16 34 0 16 16 15 17 -17 17 -32 0 -33 -1
-17 -17z"/>
<path d="M10120 15088 c-14 -11 -40 -34 -59 -50 -32 -29 -33 -32 -16 -44 10
-7 24 -10 31 -6 27 15 94 84 94 97 0 22 -24 24 -50 3z"/>
<path d="M10700 15081 c-20 -38 -13 -51 30 -51 46 0 48 7 19 44 -24 31 -35 33
-49 7z"/>
<path d="M10296 15044 c-9 -8 -16 -20 -16 -25 0 -17 42 -109 50 -109 3 0 24
15 45 33 l38 33 -40 42 c-44 46 -54 50 -77 26z"/>
<path d="M8382 14935 c-225 -49 -394 -220 -422 -427 -18 -131 9 -216 145 -453
29 -49 116 -207 195 -350 78 -143 162 -294 186 -336 82 -142 107 -258 84 -385
-27 -146 -112 -254 -266 -339 -83 -45 -94 -55 -113 -98 -28 -60 -56 -75 -110
-59 -37 12 -42 10 -122 -34 -46 -25 -88 -50 -94 -54 -5 -4 -39 -23 -75 -42
-74 -40 -323 -177 -450 -248 -47 -26 -115 -64 -152 -84 -38 -20 -68 -44 -68
-52 0 -13 73 -146 201 -365 70 -120 168 -198 291 -230 150 -39 237 -19 458
104 80 44 188 103 240 132 95 53 159 88 605 336 339 188 593 328 640 352 22
11 41 22 43 23 2 1 -4 14 -14 29 -24 37 -23 109 3 143 11 15 35 36 53 46 30
18 36 18 73 5 28 -10 46 -24 58 -48 l18 -34 31 49 c47 74 65 145 65 254 0 69
-5 109 -19 145 -20 52 -103 208 -212 400 -34 61 -113 202 -174 315 -62 113
-128 234 -147 270 -20 36 -64 115 -98 175 -34 61 -87 155 -117 210 -30 55 -84
152 -119 215 -35 63 -78 142 -94 174 -65 129 -190 229 -326 261 -77 18 -114
18 -197 0z m255 -135 c43 -26 62 -57 69 -113 8 -57 -11 -92 -63 -113 -45 -19
-83 -11 -118 26 -23 24 -30 41 -33 90 -4 57 -3 61 31 95 40 40 68 44 114 15z
m204 -1579 c37 -36 39 -42 39 -97 -1 -64 -10 -83 -53 -102 -44 -19 -83 -14
-116 14 -86 72 -50 224 52 224 32 0 46 -7 78 -39z m-1200 -1217 c27 -13 59
-68 59 -99 0 -32 -33 -86 -61 -100 -59 -31 -139 -14 -164 34 -30 59 -12 129
44 167 38 26 69 26 122 -2z"/>
<path d="M8590 14693 c0 -13 5 -23 10 -23 13 0 13 11 0 30 -8 12 -10 11 -10
-7z"/>
<path d="M8760 13148 c0 -7 5 -20 10 -28 8 -12 10 -11 10 7 0 12 -4 25 -10 28
-5 3 -10 0 -10 -7z"/>
<path d="M7560 11905 c0 -10 7 -15 18 -13 21 4 19 22 -2 26 -10 2 -16 -3 -16
-13z"/>
<path d="M10380 14919 c-46 -28 -45 -26 -32 -53 21 -46 94 -64 115 -29 8 14
-23 103 -36 103 -7 0 -28 -10 -47 -21z"/>
<path d="M10491 14854 c-29 -37 -27 -68 4 -82 14 -7 27 -12 28 -12 2 0 3 12 2
28 0 36 36 43 59 11 14 -20 14 -26 2 -45 -14 -20 -12 -22 20 -37 32 -16 34
-15 44 3 14 26 13 56 -5 90 -36 70 -116 93 -154 44z"/>
<path d="M11073 14853 c-3 -10 -14 -38 -23 -63 -10 -25 -27 -75 -38 -113 l-20
-67 29 -15 c33 -18 30 -23 90 148 33 96 34 99 15 113 -26 19 -45 18 -53 -3z"/>
<path d="M10870 14764 c0 -16 5 -36 10 -44 8 -13 14 -11 37 12 30 30 26 42
-19 53 -26 7 -28 5 -28 -21z"/>
<path d="M10735 14740 c-20 -38 -20 -38 13 -33 53 9 55 11 35 38 -23 32 -29
31 -48 -5z"/>
<path d="M11318 14721 c-27 -47 -36 -91 -20 -91 4 0 31 21 60 46 64 57 72 94
20 94 -29 0 -36 -6 -60 -49z"/>
<path d="M12197 14438 c-14 -18 -57 -96 -97 -173 -354 -680 -625 -1153 -893
-1560 -230 -350 -467 -675 -656 -901 -11 -13 -72 -39 -157 -68 -247 -84 -430
-189 -468 -270 -21 -44 -11 -84 31 -128 23 -24 34 -28 84 -28 104 0 220 80
433 301 l120 123 95 23 c231 56 559 101 891 123 91 6 350 11 577 11 368 0 463
-4 463 -17 0 -3 -110 -263 -245 -578 -135 -316 -245 -582 -245 -590 0 -12 10
-16 40 -16 36 0 43 5 80 51 39 49 50 82 31 93 -8 5 418 1019 437 1038 4 4 92
1 195 -7 289 -23 495 -52 725 -102 102 -22 122 -29 122 -44 0 -24 29 -31 110
-27 57 3 65 5 65 23 0 24 -23 32 -215 80 -222 55 -520 99 -849 125 -68 5 -125
11 -127 13 -2 2 89 219 202 482 112 263 203 486 202 494 -6 33 -45 24 -86 -21
-164 -181 -203 -222 -240 -254 l-42 -36 21 54 c31 79 69 180 69 184 0 13 -60
1 -74 -15 -10 -11 -24 -17 -31 -15 -7 3 -96 -49 -197 -116 -100 -67 -205 -133
-232 -147 l-49 -25 7 54 c9 67 69 247 135 405 28 68 51 125 51 127 0 15 -36
36 -60 36 -22 0 -43 -16 -97 -73 l-68 -74 -65 10 c-87 13 -153 -6 -248 -73
-121 -85 -182 -186 -182 -301 0 -72 16 -84 110 -83 91 1 147 28 232 115 71 72
92 81 68 32 -7 -16 -15 -68 -17 -118 -5 -86 -4 -91 20 -114 24 -21 32 -23 114
-20 79 4 98 8 165 41 41 21 113 65 159 97 46 33 85 59 87 57 1 -2 -2 -15 -9
-28 -8 -19 -8 -31 0 -47 10 -18 21 -21 68 -21 48 0 62 5 104 36 27 19 60 50
74 67 14 18 25 27 25 21 0 -5 -64 -158 -143 -340 -79 -181 -149 -342 -155
-359 l-12 -30 -523 0 c-416 0 -562 -4 -717 -18 -221 -20 -508 -59 -648 -88
-52 -10 -97 -17 -99 -15 -2 2 47 66 110 142 340 414 905 1314 1260 2004 61
118 138 256 172 305 75 109 95 146 95 180 0 23 -4 25 -39 25 -33 0 -44 -5 -64
-32z m-52 -1548 c3 -5 -13 -31 -37 -56 -67 -74 -202 -188 -206 -176 -8 24 54
130 109 185 48 48 63 57 93 57 19 0 38 -4 41 -10z m-1715 -1217 c-91 -118
-298 -292 -368 -310 -34 -8 -66 29 -57 66 8 39 102 122 180 161 55 26 247 107
263 109 2 1 -6 -11 -18 -26z"/>
<path d="M12281 13786 c-7 -8 -32 -61 -56 -118 -47 -113 -47 -142 2 -136 22 3
34 20 79 108 30 58 54 113 54 122 0 32 -58 50 -79 24z"/>
<path d="M16297 13156 c-16 -13 -16 -14 7 -30 23 -15 25 -14 31 4 6 20 0 40
-13 40 -4 0 -15 -7 -25 -14z"/>
<path d="M13430 13090 c0 -5 6 -13 14 -17 7 -4 18 -18 25 -31 7 -12 16 -20 22
-17 15 10 11 24 -16 50 -25 26 -45 32 -45 15z"/>
<path d="M16915 13081 c-9 -28 7 -48 23 -28 9 10 8 18 -2 32 -13 18 -14 18
-21 -4z"/>
<path d="M16716 13072 c-2 -4 -12 -35 -21 -69 -10 -35 -21 -63 -26 -63 -5 0
-29 5 -53 12 -38 10 -48 9 -70 -5 -32 -21 -32 -34 -5 -90 26 -53 22 -89 -21
-173 -21 -43 -26 -60 -17 -66 22 -14 27 -9 63 66 19 41 41 80 50 87 9 7 39 11
77 10 52 -2 66 1 81 18 23 25 16 57 -20 101 -23 27 -26 37 -21 78 4 26 9 57
13 68 4 14 0 23 -10 27 -8 3 -17 3 -20 -1z m-49 -171 c51 -24 70 -53 47 -75
-18 -19 -18 -19 -69 -5 -62 17 -104 67 -78 92 12 13 58 7 100 -12z"/>
<path d="M16300 13000 c6 -11 15 -20 20 -20 6 0 10 9 10 20 0 13 -7 20 -20 20
-18 0 -19 -3 -10 -20z"/>
<path d="M16786 12994 c-23 -22 -20 -51 9 -79 30 -31 77 -33 105 -5 27 27 25
36 -9 71 -33 33 -80 39 -105 13z m92 -36 c29 -29 3 -52 -45 -39 -18 5 -29 15
-31 29 -3 19 1 22 30 22 19 0 39 -5 46 -12z"/>
<path d="M16048 12945 c-5 -25 6 -32 30 -17 10 7 8 12 -7 26 -18 16 -19 16
-23 -9z"/>
<path d="M13442 12943 c-50 -7 -162 -123 -206 -215 -55 -117 -74 -265 -41
-327 18 -36 32 -41 114 -41 59 0 73 4 108 29 44 32 83 77 83 96 0 7 23 15 59
18 116 12 241 78 353 184 62 60 71 84 36 100 -36 16 -70 0 -162 -75 -82 -66
-202 -139 -212 -129 -3 2 5 53 17 113 25 123 19 168 -27 224 -26 31 -38 33
-122 23z m48 -163 c0 -16 -4 -30 -10 -30 -5 0 -10 14 -10 30 0 17 5 30 10 30
6 0 10 -13 10 -30z m-23 -92 c-2 -13 -4 -5 -4 17 -1 22 1 32 4 23 2 -10 2 -28
0 -40z m-109 -108 c17 -27 32 -54 32 -60 0 -16 -61 -80 -76 -80 -9 0 -14 11
-14 28 0 52 13 162 19 162 3 0 21 -23 39 -50z"/>
<path d="M15865 12900 c-3 -5 1 -10 9 -10 9 0 16 5 16 10 0 6 -4 10 -9 10 -6
0 -13 -4 -16 -10z"/>
<path d="M17035 12900 c-4 -6 -2 -17 4 -23 15 -15 25 -2 13 19 -7 12 -11 13
-17 4z"/>
<path d="M15877 12857 c-36 -21 -38 -21 -48 -4 -8 13 -14 15 -30 7 -16 -9 -17
-14 -8 -31 13 -26 8 -31 -56 -54 -62 -22 -59 -19 -45 -44 l11 -21 49 25 c27
14 55 25 62 25 7 0 26 -23 41 -50 30 -53 38 -58 56 -36 9 11 4 23 -24 56 -19
23 -35 45 -35 49 0 3 20 18 45 31 33 18 45 30 43 44 -4 28 -18 28 -61 3z"/>
<path d="M16273 12834 c-8 -21 13 -42 28 -27 13 13 5 43 -11 43 -6 0 -13 -7
-17 -16z"/>
<path d="M16895 12806 c-20 -47 -19 -66 4 -66 20 0 45 47 39 76 -6 32 -28 27
-43 -10z"/>
<path d="M16394 12816 c-33 -15 -44 -33 -44 -71 0 -46 71 -60 128 -25 44 27
45 73 2 95 -35 18 -46 18 -86 1z m64 -53 c-3 -25 -7 -28 -38 -28 -26 0 -36 5
-38 19 -5 23 14 36 51 36 25 0 28 -3 25 -27z"/>
<path d="M15923 12793 c-18 -6 -16 -40 1 -46 8 -3 20 1 27 9 10 12 9 18 -2 28
-8 8 -20 12 -26 9z"/>
<path d="M16032 12769 c1 -13 8 -23 13 -21 15 3 12 35 -3 40 -9 3 -13 -3 -10
-19z"/>
<path d="M15777 12713 c-11 -10 -8 -41 4 -49 16 -9 43 21 36 40 -7 16 -28 21
-40 9z"/>
<path d="M16232 12711 c-24 -6 -24 -6 -4 -24 20 -18 20 -18 27 3 8 26 6 28
-23 21z"/>
<path d="M16320 12590 c0 -36 9 -38 39 -6 19 21 20 24 6 30 -34 13 -45 6 -45
-24z"/>
<path d="M15758 12574 c-23 -12 -28 -21 -28 -55 0 -36 -3 -41 -34 -54 -31 -13
-35 -20 -38 -57 -3 -36 -7 -43 -28 -48 -19 -4 -26 -13 -28 -35 -2 -17 -11 -38
-20 -48 -24 -27 -1 -45 31 -24 18 12 23 22 20 41 -4 21 0 28 23 36 37 14 43
26 37 65 -5 29 -2 32 37 48 41 16 42 17 35 55 -6 37 -4 40 25 52 24 10 28 15
19 26 -14 17 -17 17 -51 -2z"/>
<path d="M15840 12507 c-19 -9 -26 -22 -28 -50 -3 -29 -9 -40 -31 -52 -33 -17
-43 -37 -35 -71 5 -21 1 -26 -25 -35 -27 -9 -31 -16 -31 -45 0 -22 -6 -37 -15
-40 -16 -7 -21 -34 -6 -34 5 0 21 4 35 10 22 8 25 14 20 39 -6 27 -2 33 30 52
33 19 36 24 30 55 -6 32 -4 35 30 49 32 14 36 19 36 53 0 29 5 40 22 47 12 6
23 16 26 23 5 16 -26 15 -58 -1z"/>
<path d="M15300 12389 c-71 -96 -110 -171 -110 -212 0 -6 17 16 39 49 21 32
70 99 110 148 39 49 71 92 71 96 0 4 -6 13 -14 19 -11 9 -29 -9 -96 -100z"/>
<path d="M16331 12456 c-28 -45 -27 -52 19 -82 47 -31 60 -28 88 20 l21 35
-37 31 c-47 39 -65 38 -91 -4z"/>
<path d="M15114 12452 c-8 -5 -6 -37 7 -112 10 -58 19 -125 20 -150 l1 -45 14
50 c12 41 13 66 4 140 -16 127 -19 135 -46 117z"/>
<path d="M9667 12436 c-6 -16 2 -28 14 -20 12 7 11 34 0 34 -5 0 -11 -6 -14
-14z"/>
<path d="M15425 12366 l7 -64 -43 -15 c-24 -9 -53 -17 -64 -19 -12 -2 -20 -11
-20 -23 0 -25 32 -24 128 5 63 19 68 23 62 43 -4 12 -14 48 -23 80 -13 43 -21
57 -35 57 -17 0 -18 -6 -12 -64z"/>
<path d="M15241 12394 c0 -11 3 -14 6 -6 3 7 2 16 -1 19 -3 4 -6 -2 -5 -13z"/>
<path d="M15201 12384 c0 -11 3 -14 6 -6 3 7 2 16 -1 19 -3 4 -6 -2 -5 -13z"/>
<path d="M14970 12370 c-12 -9 -5 -20 40 -61 51 -49 55 -50 63 -30 8 17 3 27
-32 61 -44 43 -48 45 -71 30z"/>
<path d="M16603 12309 c-27 -10 -39 -49 -24 -78 14 -25 53 -37 78 -22 17 10
16 10 -4 11 -34 0 -53 11 -53 30 0 10 9 20 21 23 29 8 69 -9 69 -29 0 -17 21
-15 27 3 11 33 -72 78 -114 62z"/>
<path d="M14792 12264 c-27 -19 -28 -41 -2 -49 28 -9 40 2 40 36 0 33 -6 35
-38 13z"/>
<path d="M13270 12210 c-27 -27 -23 -64 7 -68 28 -4 61 42 47 66 -16 25 -31
25 -54 2z"/>
<path d="M15515 12120 c-23 -44 -20 -70 9 -70 18 0 27 8 35 31 17 48 14 69 -9
69 -11 0 -26 -12 -35 -30z"/>
<path d="M15682 12078 c2 -15 10 -23 23 -23 13 0 21 8 23 23 3 18 -1 22 -23
22 -22 0 -26 -4 -23 -22z"/>
<path d="M14476 11982 c-9 -19 -16 -36 -14 -37 2 -2 20 -10 41 -19 l38 -15 19
32 c28 45 25 52 -24 64 -44 10 -44 10 -60 -25z"/>
<path d="M16140 11973 c0 -25 0 -26 20 -8 11 10 20 22 20 27 0 4 -9 8 -20 8
-15 0 -20 -7 -20 -27z"/>
<path d="M15977 11946 c-7 -18 1 -26 25 -26 13 0 18 6 16 17 -4 22 -34 29 -41
9z"/>
<path d="M15901 11926 c-14 -16 -4 -43 24 -66 40 -33 37 -47 -16 -85 -28 -20
-48 -39 -45 -42 3 -4 16 3 29 14 12 11 54 39 94 63 75 46 105 82 85 102 -8 8
-20 3 -47 -21 -20 -17 -39 -31 -43 -31 -4 0 -17 18 -30 40 -25 43 -33 48 -51
26z"/>
<path d="M14650 11911 c0 -5 3 -17 6 -25 5 -13 9 -14 20 -5 21 17 17 39 -6 39
-11 0 -20 -4 -20 -9z"/>
<path d="M15873 11853 c-13 -5 -18 -35 -7 -46 11 -11 34 5 34 23 0 22 -10 29
-27 23z"/>
<path d="M15600 11706 l0 -43 50 -6 c67 -8 80 -2 80 37 0 31 -3 33 -51 44 -77
18 -79 18 -79 -32z"/>
<path d="M14638 11726 c-16 -11 -16 -15 -3 -32 13 -16 16 -17 25 -4 11 18 13
50 3 50 -5 0 -16 -7 -25 -14z"/>
<path d="M15461 11728 c0 -7 4 -22 8 -32 7 -18 8 -18 24 4 13 19 14 26 4 32
-18 12 -37 10 -36 -4z"/>
<path d="M15397 11563 c-9 -9 -9 -53 1 -53 20 1 34 19 27 39 -6 21 -16 26 -28
14z"/>
<path d="M14723 11518 c4 -26 -1 -39 -20 -59 -24 -26 -24 -28 -8 -59 17 -33
17 -33 -13 -56 -29 -23 -30 -25 -18 -64 15 -49 33 -70 41 -47 4 8 1 25 -5 37
-10 19 -8 26 14 49 28 29 32 51 15 83 -9 17 -6 25 17 49 27 29 28 29 11 64
-21 45 -41 46 -34 3z"/>
<path d="M14820 11519 c0 -6 4 -19 10 -29 8 -15 4 -23 -22 -44 l-32 -25 17
-37 c18 -37 18 -37 -9 -65 -23 -24 -25 -33 -19 -67 5 -33 3 -42 -12 -50 -14
-8 -16 -15 -8 -38 14 -39 35 -43 35 -6 0 19 8 35 21 44 20 13 21 17 9 50 -13
34 -12 37 14 60 l28 24 -18 38 -19 38 28 20 c28 21 34 46 17 79 -11 20 -40 26
-40 8z"/>
<path d="M15117 11452 c-20 -22 -21 -45 -6 -74 10 -19 7 -25 -22 -49 -33 -26
-33 -29 -21 -61 12 -31 11 -34 -14 -54 -22 -18 -25 -26 -19 -53 4 -20 2 -37
-6 -47 -9 -11 -9 -18 -1 -26 20 -20 55 21 48 56 -5 22 -1 34 18 51 23 21 24
26 13 60 -10 35 -9 38 21 61 32 25 32 26 17 61 -14 34 -14 38 5 58 11 12 20
24 20 28 0 14 -38 6 -53 -11z"/>
<path d="M15216 11416 c-27 -23 -28 -25 -16 -61 12 -36 11 -39 -14 -57 -28
-21 -33 -47 -15 -81 10 -18 8 -24 -16 -43 -26 -21 -27 -24 -15 -54 11 -27 11
-32 -6 -45 -18 -13 -18 -14 -1 -21 12 -4 25 0 38 13 17 17 18 23 8 47 -11 24
-10 29 16 56 26 27 27 31 15 60 -12 29 -11 33 14 59 23 24 25 31 16 56 -9 24
-7 31 11 51 11 12 18 27 14 33 -9 15 -16 13 -49 -13z"/>
<path d="M15687 11243 c-14 -13 -6 -33 13 -33 13 0 20 7 20 20 0 19 -20 27
-33 13z"/>
<path d="M15580 11093 c0 -6 -3 -18 -6 -27 -7 -18 4 -20 26 -6 13 8 13 11 -2
27 -10 9 -18 12 -18 6z"/>
<path d="M15383 11054 c-8 -21 13 -42 28 -27 13 13 5 43 -11 43 -6 0 -13 -7
-17 -16z"/>
<path d="M14792 11049 c2 -7 10 -15 17 -17 8 -3 12 1 9 9 -2 7 -10 15 -17 17
-8 3 -12 -1 -9 -9z"/>
<path d="M15290 11043 c0 -10 9 -38 20 -62 11 -24 20 -44 20 -46 0 -1 -27 -12
-60 -24 -36 -13 -60 -28 -60 -37 0 -26 27 -26 79 0 28 14 52 26 55 26 2 0 19
-25 36 -55 27 -48 34 -54 51 -45 10 6 19 12 19 14 0 2 -16 23 -35 46 -19 23
-35 46 -35 50 0 4 20 20 45 34 45 27 58 52 31 62 -7 3 -29 -4 -47 -15 -19 -12
-37 -21 -41 -21 -4 0 -13 20 -19 45 -10 38 -15 45 -35 45 -16 0 -24 -6 -24
-17z"/>
<path d="M14947 11033 c-14 -13 -7 -33 11 -33 24 0 32 8 25 26 -5 15 -25 19
-36 7z"/>
<path d="M15240 10985 c-10 -11 -10 -19 -2 -27 15 -15 44 -2 40 19 -4 23 -22
27 -38 8z"/>
<path d="M15800 10960 c0 -15 5 -20 18 -18 9 2 17 10 17 18 0 8 -8 16 -17 18
-13 2 -18 -3 -18 -18z"/>
<path d="M9815 10943 c-33 -2 -63 -7 -67 -11 -4 -4 0 -37 8 -74 14 -62 18 -68
49 -78 41 -14 102 -4 114 19 5 9 6 45 2 81 -7 73 -1 69 -106 63z"/>
<path d="M15893 10928 c-34 -42 -19 -82 35 -93 39 -8 44 11 6 25 -21 8 -25 16
-22 35 6 31 -5 51 -19 33z"/>
<path d="M15447 10923 c-15 -14 -7 -43 12 -43 23 0 34 23 18 39 -13 13 -21 14
-30 4z"/>
<path d="M9545 10901 c35 -21 247 -242 265 -276 11 -21 0 -39 -138 -226 -117
-160 -155 -205 -174 -207 -21 -3 -50 23 -173 150 -81 84 -159 167 -172 185
l-25 32 73 88 c40 48 111 127 158 176 76 78 82 87 59 87 -28 0 -129 -100 -247
-242 -35 -43 -66 -78 -68 -78 -3 0 -45 43 -95 95 -116 123 -174 165 -224 165
l-39 0 53 -31 c29 -16 85 -60 124 -97 l70 -68 -69 -69 -70 -70 -27 48 c-21 37
-37 53 -72 69 -69 30 -103 13 -178 -86 l-59 -78 -50 50 -50 51 76 95 c42 52
94 113 115 135 38 40 38 41 14 41 -15 0 -37 -14 -59 -37 -35 -38 -220 -266
-248 -306 -15 -21 -15 -21 -29 -2 -7 11 -63 79 -123 150 l-110 130 -82 -2
c-54 -1 -90 -7 -105 -17 -20 -13 -165 -166 -279 -295 -36 -40 -40 -42 -56 -27
-10 9 -21 16 -24 16 -12 0 -8 -35 5 -48 9 -9 7 -19 -10 -42 -12 -16 -22 -41
-22 -56 0 -26 1 -26 38 16 l37 42 95 -99 c52 -54 122 -134 154 -178 70 -94 81
-105 116 -105 21 0 46 25 136 133 61 72 139 168 173 212 34 44 66 81 70 83 4
1 65 -70 135 -158 152 -191 188 -215 264 -176 47 24 214 209 380 420 l22 29
183 -187 c163 -167 185 -187 214 -186 38 0 51 15 234 268 61 84 116 151 122
149 11 -3 142 -169 232 -293 42 -58 55 -70 82 -72 43 -4 62 11 144 110 62 74
84 118 61 118 -5 0 -42 -40 -83 -89 -41 -49 -84 -95 -97 -102 -28 -16 -25 -19
-135 133 l-86 117 21 28 c12 15 25 32 28 36 4 5 28 -21 53 -56 26 -36 54 -67
62 -71 55 -21 85 4 163 134 31 53 41 77 36 96 -6 22 -13 14 -65 -73 -63 -103
-91 -135 -113 -127 -7 3 -34 34 -60 70 l-47 65 31 39 c40 50 86 89 115 96 14
3 43 -3 71 -15 26 -12 49 -19 52 -17 2 3 -9 19 -26 36 -24 24 -39 30 -72 30
-55 0 -89 -19 -146 -84 l-49 -54 -43 40 -43 40 82 100 c62 76 78 102 68 109
-18 11 -32 -3 -144 -146 l-96 -123 -42 47 c-22 25 -82 88 -131 139 -80 82 -95
92 -126 92 l-35 0 30 -19z m-1518 -158 c17 -16 81 -88 142 -161 l110 -134 -80
-101 c-121 -153 -273 -337 -279 -337 -12 0 -28 19 -85 95 -32 44 -104 126
-158 182 -116 120 -122 87 45 271 128 141 211 212 248 212 14 0 40 -12 57 -27z
m1947 -122 l29 -30 -28 -36 -27 -37 -29 34 c-39 45 -43 64 -22 92 21 27 33 24
77 -23z m-902 -75 c-60 -80 -137 -166 -146 -163 -11 3 -55 75 -56 89 0 4 32
39 71 79 l70 71 35 -33 c20 -19 30 -37 26 -43z m-324 50 c29 -15 72 -82 72
-112 0 -30 -121 -154 -149 -154 -16 0 -40 18 -72 53 -27 28 -49 55 -49 60 0
13 101 146 118 157 24 13 49 12 80 -4z m-274 -177 c-10 -11 -32 -30 -48 -42
l-28 -20 -34 39 c-18 21 -33 44 -34 50 0 6 15 29 32 52 l32 42 50 -49 50 -50
-20 -22z m403 -34 l32 -44 -73 -83 c-130 -148 -170 -175 -230 -152 -12 5 -107
117 -177 209 -5 7 12 28 42 54 l49 42 53 -55 c84 -89 121 -86 211 17 28 31 53
57 56 56 3 0 19 -20 37 -44z"/>
<path d="M7928 10689 c-32 -18 -20 -50 45 -118 35 -37 76 -84 91 -104 27 -35
28 -38 12 -62 -28 -43 -138 -166 -153 -172 -9 -4 -38 20 -81 67 -91 99 -90 97
-51 130 l34 29 52 -52 c48 -47 54 -50 78 -39 42 19 32 49 -44 125 -82 81 -85
81 -178 0 -67 -58 -78 -78 -64 -114 11 -31 171 -208 202 -225 63 -35 105 -10
219 129 73 89 80 102 80 142 0 35 -8 53 -44 102 -46 60 -158 173 -173 173 -4
0 -16 -5 -25 -11z"/>
<path d="M15556 10912 c-2 -4 -1 -14 4 -22 7 -11 12 -12 21 -3 6 6 8 16 5 22
-8 13 -23 14 -30 3z"/>
<path d="M9113 10882 l-53 -3 0 -89 c0 -80 2 -90 20 -100 12 -6 33 -10 48 -8
24 3 28 8 35 58 4 30 6 75 5 100 l-3 45 -52 -3z"/>
<path d="M9460 10831 c-5 -11 -10 -23 -10 -28 0 -4 41 -49 90 -100 50 -50 90
-100 90 -110 0 -10 -37 -58 -82 -106 l-81 -89 -79 79 c-43 42 -78 80 -78 83 0
4 14 16 31 29 l30 23 49 -46 c27 -25 54 -46 60 -46 27 0 50 22 50 48 0 34
-119 152 -154 152 -24 0 -127 -79 -159 -121 -13 -18 -17 -34 -12 -49 9 -27
166 -198 207 -224 38 -24 87 -16 132 21 40 34 159 169 175 200 28 55 6 99
-107 216 -67 68 -92 87 -113 87 -18 0 -32 -7 -39 -19z"/>
<path d="M15297 10837 c-8 -21 8 -39 29 -35 27 5 25 42 -2 46 -12 2 -24 -3
-27 -11z"/>
<path d="M15752 10842 c-9 -7 -8 -13 8 -27 11 -10 20 -13 20 -7 0 6 3 17 6 26
7 17 -12 21 -34 8z"/>
<path d="M8290 10808 c-52 -5 -96 -11 -97 -12 -2 -1 1 -29 5 -61 l7 -59 45 -9
c60 -10 124 -1 144 22 13 14 16 33 14 72 -2 29 -7 53 -13 54 -5 1 -53 -2 -105
-7z"/>
<path d="M15850 10726 c0 -40 9 -45 33 -18 19 20 22 42 8 42 -5 0 -16 3 -25 6
-13 5 -16 -1 -16 -30z"/>
<path d="M15283 10705 c-17 -12 -23 -26 -23 -55 0 -35 -3 -39 -35 -50 -33 -11
-35 -14 -35 -55 0 -40 -2 -44 -30 -50 -16 -4 -30 -10 -30 -13 1 -14 29 -57 30
-45 0 7 14 19 30 28 26 13 30 21 30 55 0 38 3 41 41 56 39 16 40 18 34 55 -6
35 -4 40 19 51 27 12 30 31 5 36 -8 1 -24 -5 -36 -13z"/>
<path d="M15373 10643 c-29 -12 -33 -17 -33 -53 0 -36 -3 -41 -35 -54 -32 -14
-35 -19 -35 -56 0 -34 -4 -42 -24 -50 -19 -7 -25 -18 -28 -52 -3 -24 -2 -47 3
-52 14 -15 29 5 29 39 0 27 6 37 34 53 31 19 34 24 30 54 -5 31 -3 35 28 48
28 13 33 20 33 50 1 28 6 38 28 48 51 25 23 48 -30 25z"/>
<path d="M7609 10623 c-13 -16 -12 -17 4 -4 9 7 17 15 17 17 0 8 -8 3 -21 -13z"/>
<path d="M15860 10589 c-16 -23 -27 -46 -24 -51 11 -17 86 -59 98 -55 6 3 20
21 31 40 19 36 19 36 0 58 -11 11 -32 27 -47 35 -27 14 -29 13 -58 -27z"/>
<path d="M9811 10457 c-11 -14 -30 -128 -31 -184 0 -17 7 -39 16 -47 18 -18
24 -19 42 -7 15 9 48 210 39 235 -8 19 -50 21 -66 3z"/>
<path d="M16122 10434 c-48 -33 -8 -104 60 -104 63 0 73 40 23 94 -28 30 -51
33 -83 10z m79 -34 c26 -15 24 -38 -5 -46 -41 -10 -83 25 -59 49 10 10 42 8
64 -3z"/>
<path d="M9061 10257 c-57 -18 -109 -40 -114 -48 -10 -17 -2 -95 12 -118 8
-12 26 -11 118 12 59 14 123 29 141 32 45 9 57 42 39 104 -12 44 -14 46 -52
48 -22 1 -87 -13 -144 -30z"/>
<path d="M16270 10271 c0 -10 12 -26 26 -36 15 -9 25 -13 22 -8 -31 65 -48 82
-48 44z"/>
<path d="M16055 10197 c-11 -9 -16 -20 -12 -31 8 -20 31 -21 47 0 11 12 11 18
-1 30 -13 12 -18 12 -34 1z"/>
<path d="M12972 10169 c-116 -15 -250 -93 -311 -182 -27 -41 -214 -378 -226
-408 -4 -10 3 -20 20 -27 31 -15 65 -16 65 -2 0 16 46 41 64 34 9 -4 23 -19
31 -34 l14 -28 -130 -38 c-72 -21 -134 -41 -138 -44 -4 -3 -46 -77 -94 -164
-63 -115 -86 -167 -85 -189 2 -17 -3 -32 -10 -35 -8 -2 -3 -11 13 -24 25 -19
34 -48 15 -48 -14 0 -12 -43 3 -64 19 -26 62 -18 62 11 1 32 9 36 47 20 29
-12 36 -21 41 -53 4 -22 7 -44 7 -50 0 -14 -127 -47 -165 -42 -24 3 -31 12
-58 81 -16 42 -33 77 -36 77 -4 0 -24 -31 -44 -69 -33 -61 -36 -73 -25 -91 17
-26 1 -54 -33 -58 -26 -3 -32 -14 -197 -317 -55 -101 -59 -111 -45 -127 24
-26 75 -23 107 7 33 30 55 31 89 5 30 -24 50 -25 67 -5 7 8 20 15 30 15 18 0
50 -30 50 -46 0 -19 -90 -33 -248 -40 l-160 -7 -16 -41 c-48 -119 -42 -267 13
-376 l28 -54 29 87 c15 48 33 87 39 87 6 0 19 -6 28 -12 16 -12 14 -20 -18
-112 l-36 -99 33 -34 c47 -49 164 -116 188 -108 13 4 33 -2 54 -14 43 -27 72
-26 99 2 34 36 52 38 92 11 l37 -25 31 20 c22 13 37 17 48 11 16 -10 0 -39
495 867 100 184 139 265 159 335 15 51 36 117 47 145 l19 53 28 -15 c40 -20
47 -46 21 -67 -19 -16 -67 -118 -55 -118 2 0 20 11 40 25 55 37 142 66 217 72
124 11 199 -14 421 -139 88 -50 88 -50 121 -34 19 9 41 16 49 16 28 0 59 -36
66 -75 6 -38 11 -42 101 -92 52 -28 98 -49 102 -45 3 4 16 39 27 77 12 39 27
83 34 99 12 28 12 28 36 9 l23 -19 -36 -97 c-20 -53 -36 -98 -36 -101 0 -5 72
-45 223 -125 106 -56 124 -58 164 -15 28 30 41 30 82 -1 l34 -24 39 22 39 22
20 -24 c10 -13 19 -27 19 -31 0 -7 -61 -26 -110 -33 l-25 -4 26 -2 c42 -2 125
17 179 40 l50 21 -25 30 c-50 59 -20 168 46 168 29 0 75 -29 90 -57 7 -13 15
-23 19 -23 10 0 71 106 95 167 13 32 26 77 30 100 l7 43 -49 -15 c-70 -21 -72
-21 -62 22 12 57 37 70 92 48 22 -9 23 18 2 94 -39 148 -121 239 -305 337 -63
34 -205 111 -315 171 -110 61 -231 127 -270 148 -38 21 -118 64 -177 96 -85
47 -116 59 -151 59 -40 0 -44 2 -40 23 3 19 -9 29 -96 75 -56 29 -101 48 -101
42 0 -22 -44 -5 -50 19 -4 18 -31 38 -104 78 l-98 55 -22 -21 c-49 -46 -123
-9 -133 67 -6 42 -8 44 -76 78 -38 20 -99 42 -136 50 -73 15 -69 15 -159 3z
m-43 -184 c13 -19 27 -33 31 -30 18 11 40 -9 51 -45 11 -34 13 -37 27 -24 11
12 27 14 61 9 44 -5 47 -4 63 25 10 18 25 30 38 30 19 0 60 -32 60 -48 0 -6
-362 -192 -374 -192 -2 0 -9 14 -15 32 -16 47 7 69 64 61 36 -4 46 -2 66 18
l23 23 -84 28 c-46 15 -92 28 -102 28 -10 0 -18 4 -18 9 0 4 -20 14 -45 21
-25 7 -48 16 -50 20 -6 9 51 60 66 60 6 0 19 -5 30 -11 16 -8 26 -7 42 5 32
22 39 20 66 -19z m-205 -121 c21 -20 20 -27 -5 -50 -36 -32 -79 15 -44 50 20
20 29 20 49 0z m779 -180 c26 -9 47 -18 47 -22 0 -21 -55 -93 -75 -98 -52 -13
-66 30 -36 109 12 32 6 31 64 11z m184 -10 c8 -22 -9 -48 -34 -52 -23 -3 -37
21 -28 49 8 24 53 25 62 3z m-762 -20 c30 -20 32 -49 5 -66 -17 -11 -35 -57
-86 -225 -4 -16 -16 -16 -37 0 -17 11 -14 23 29 160 26 81 51 147 56 147 5 0
20 -7 33 -16z m849 -86 c13 -22 7 -27 -38 -35 -41 -6 -48 8 -19 39 19 22 41
20 57 -4z m447 -69 c50 -98 -25 -136 -92 -46 l-22 31 38 33 c21 18 42 30 47
27 4 -3 17 -23 29 -45z m-843 14 c6 -10 13 -33 17 -50 6 -30 4 -34 -22 -44
-77 -29 -91 -24 -107 44 -6 25 -3 29 36 47 53 24 65 25 76 3z m-631 -49 c13
-33 -35 -70 -59 -46 -6 6 -8 22 -4 36 5 19 13 26 32 26 14 0 27 -7 31 -16z
m933 -41 c39 -49 10 -140 -53 -171 -60 -29 -127 47 -106 121 20 73 117 103
159 50z m313 6 c12 -7 23 -12 24 -13 2 -1 -7 -27 -19 -57 -11 -30 -33 -94 -48
-144 -15 -49 -32 -91 -37 -92 -5 -2 -17 2 -26 9 -17 13 -10 45 66 276 12 36
11 36 40 21z m-1579 -62 l29 -13 -28 -22 c-35 -28 -41 -28 -49 1 -13 50 -5 56
48 34z m733 -117 c21 -4 29 -13 36 -42 8 -35 10 -36 33 -23 19 10 34 10 61 2
32 -10 38 -9 47 7 26 45 45 57 69 45 12 -7 27 -19 34 -28 10 -14 -12 -28 -170
-108 -100 -51 -187 -92 -194 -92 -18 -1 -27 57 -12 75 10 12 23 14 54 9 33 -4
47 -2 66 14 16 13 21 23 14 29 -14 13 -134 52 -162 52 -13 0 -23 4 -23 8 0 5
-25 16 -55 26 l-55 17 17 25 c22 29 57 40 87 26 18 -8 29 -6 51 8 l29 19 23
-32 c13 -18 36 -34 50 -37z m-633 25 c3 -8 8 -37 12 -65 6 -46 5 -50 -17 -59
-29 -11 -34 -3 -44 66 -6 43 -4 53 12 62 24 14 30 14 37 -4z m2265 -56 c32
-31 45 -64 39 -95 -2 -11 -25 -23 -71 -37 -64 -19 -68 -19 -86 -2 -27 23 -35
68 -21 110 21 64 88 76 139 24z m-2011 -21 c4 -23 -32 -37 -106 -40 -55 -3
-57 -2 -57 22 0 21 6 26 40 31 71 11 119 6 123 -13z m133 -44 c17 -21 0 -49
-32 -49 -18 0 -25 6 -27 24 -6 38 34 55 59 25z m1514 -84 c21 -24 48 -26 65
-5 16 19 54 19 70 0 37 -44 -28 -62 -257 -71 -186 -6 -185 -7 -158 45 19 38
51 45 86 20 37 -26 73 -24 105 6 33 30 65 32 89 5z m517 -27 c22 -20 23 -31 3
-52 -21 -24 2 -65 38 -69 23 -3 27 0 27 22 0 28 19 33 63 17 20 -8 25 -18 30
-58 3 -27 1 -51 -5 -54 -5 -4 -44 -14 -85 -23 -56 -12 -79 -14 -89 -5 -12 10
-84 183 -84 201 0 8 56 36 74 37 5 1 18 -6 28 -16z m-1247 -67 c42 -18 43 -29
10 -78 -58 -86 -120 -42 -84 61 12 35 24 37 74 17z m175 -1 c26 -32 -25 -78
-54 -49 -20 19 -20 29 0 48 19 20 38 20 54 1z m-1080 -117 c11 -12 19 -27 17
-32 -2 -6 -89 -36 -193 -68 -258 -78 -234 -74 -234 -38 0 32 30 70 56 70 8 0
24 -5 36 -11 31 -17 67 -2 90 36 22 38 41 43 96 23 32 -12 35 -11 54 15 24 33
50 35 78 5z m1167 6 c7 -19 -4 -31 -39 -39 -23 -6 -28 -4 -28 12 0 38 54 61
67 27z m830 -50 c9 -24 -10 -49 -38 -49 -27 0 -37 28 -19 50 17 20 49 19 57
-1z m-289 -46 c31 -52 34 -73 14 -98 -17 -21 -20 -22 -48 -7 -16 8 -39 29 -51
45 l-22 30 35 31 c19 17 39 31 44 31 4 0 17 -15 28 -32z m-1564 -10 c8 -13 6
-22 -8 -37 -24 -26 -42 -27 -56 -2 -13 25 -13 27 6 46 20 19 43 16 58 -7z
m-315 -103 c3 -4 -7 -18 -23 -32 -31 -27 -40 -23 -50 21 -7 28 -7 29 30 23 20
-3 39 -9 43 -12z m85 -106 c12 -63 7 -97 -15 -104 -27 -9 -29 -7 -36 53 -7 61
0 82 25 82 14 0 21 -9 26 -31z m-385 -84 c31 -26 57 -86 48 -109 -3 -7 -36
-22 -73 -32 l-67 -18 -25 29 c-20 24 -23 36 -19 74 9 79 76 106 136 56z m162
-191 c23 -25 23 -26 5 -39 -16 -13 -17 -18 -6 -44 20 -49 70 -52 70 -4 0 23 3
25 32 19 45 -9 52 -19 52 -73 l1 -48 -78 -19 c-42 -10 -83 -16 -91 -13 -14 5
-86 175 -86 202 0 8 15 21 33 29 43 19 40 20 68 -10z m-161 -219 c26 -32 -25
-78 -54 -49 -20 19 -20 29 0 48 19 20 38 20 54 1z m-274 -66 c18 -36 18 -73
-1 -89 -20 -16 -45 -6 -86 36 l-34 35 38 35 c42 39 55 36 83 -17z"/>
<path d="M13586 9384 c-20 -20 -20 -48 -1 -64 20 -16 43 -6 57 24 19 44 -23
74 -56 40z"/>
<path d="M14690 9185 c-29 -35 21 -93 55 -65 20 17 19 44 -3 63 -23 21 -36 21
-52 2z"/>
<path d="M12227 8423 c-11 -11 -8 -48 5 -61 32 -32 79 2 60 43 -11 24 -49 35
-65 18z"/>
<path d="M8202 10163 l-43 -4 3 -42 3 -42 60 3 c33 2 76 7 95 11 32 6 35 10
38 44 l3 37 -58 -2 c-32 -1 -77 -3 -101 -5z"/>
<path d="M16225 10156 c-19 -14 -19 -16 -3 -32 21 -22 31 -14 26 21 -3 24 -4
25 -23 11z"/>
<path d="M15667 10134 c-2 -3 -2 -16 1 -30 4 -24 5 -24 23 -8 11 9 19 20 19
24 0 9 -37 20 -43 14z"/>
<path d="M7538 10123 c-33 -5 -34 -14 -7 -73 28 -62 67 -110 88 -110 35 0 44
25 37 101 -3 40 -9 75 -12 80 -5 9 -54 10 -106 2z"/>
<path d="M16365 10120 c-3 -5 1 -13 10 -16 22 -9 29 1 11 15 -10 8 -16 9 -21
1z"/>
<path d="M15792 10087 c-20 -21 -21 -27 -10 -57 11 -32 9 -35 -20 -60 -30 -25
-31 -28 -20 -64 11 -35 10 -39 -15 -59 -24 -20 -26 -24 -14 -47 7 -14 21 -26
31 -28 15 -3 16 -1 8 15 -9 14 -5 24 16 46 24 26 25 29 13 63 -8 21 -9 39 -4
43 58 40 57 38 43 81 -13 38 -12 42 8 56 23 16 21 34 -2 34 -7 0 -22 -10 -34
-23z"/>
<path d="M15505 10080 c-4 -7 -3 -16 3 -22 14 -14 45 -2 40 15 -6 16 -34 21
-43 7z"/>
<path d="M15893 10056 c-25 -22 -26 -26 -16 -59 10 -33 8 -38 -17 -62 -25 -24
-27 -30 -18 -62 8 -30 6 -38 -12 -58 -26 -27 -23 -55 6 -65 18 -7 20 -5 16 16
-3 17 3 32 22 49 26 24 26 25 10 56 -16 31 -15 32 11 54 25 19 27 26 21 59 -6
32 -4 42 14 58 19 18 19 38 0 38 -5 0 -21 -11 -37 -24z"/>
<path d="M15433 10063 c-22 -8 -14 -31 24 -74 35 -39 36 -42 19 -54 -13 -10
-15 -18 -8 -31 6 -11 11 -13 16 -5 13 21 40 11 81 -29 38 -38 43 -40 56 -24
12 15 11 19 -15 38 -16 12 -38 29 -50 38 l-21 17 39 40 c25 25 37 45 33 55 -9
24 -30 19 -62 -14 -16 -16 -31 -30 -34 -30 -3 0 -16 18 -29 40 -23 40 -26 43
-49 33z"/>
<path d="M13402 10035 c9 -10 21 -16 28 -13 7 2 -1 10 -16 17 -27 12 -28 11
-12 -4z"/>
<path d="M15990 10000 c0 -34 7 -37 36 -16 19 15 19 15 -1 30 -29 22 -35 20
-35 -14z"/>
<path d="M10263 9983 c-48 -34 -108 -100 -227 -251 l-88 -112 -41 47 c-104
121 -225 237 -265 255 -65 29 -94 18 -184 -70 -62 -60 -75 -78 -66 -89 9 -11
26 1 88 62 90 87 113 93 176 46 59 -44 264 -264 264 -284 0 -9 -240 -342 -287
-398 -14 -16 -32 -28 -39 -25 -9 3 -14 -2 -14 -14 0 -14 7 -20 24 -20 31 0 57
31 216 250 68 94 129 169 134 167 6 -2 70 -81 142 -177 72 -96 141 -180 152
-188 35 -23 74 1 153 94 56 66 70 89 67 110 -3 25 -9 20 -81 -68 -71 -88 -93
-108 -118 -108 -5 0 -48 53 -95 118 -48 64 -90 122 -95 127 -4 6 5 27 20 48
l28 37 42 -60 c62 -88 105 -103 153 -52 36 37 128 193 128 215 0 33 -21 58
-63 78 -84 38 -136 22 -213 -65 l-49 -55 -43 39 -43 38 79 99 c44 54 102 119
130 146 56 52 89 59 142 32 28 -15 30 -14 30 4 0 24 -46 51 -88 51 -16 0 -47
-12 -69 -27z m118 -304 c29 -15 39 -25 35 -36 -13 -33 -105 -179 -124 -196
-27 -25 -45 -14 -98 59 l-45 65 41 49 c23 28 52 57 63 65 30 21 81 19 128 -6z
m-291 -128 c-5 -9 -17 -25 -25 -36 -15 -20 -17 -19 -50 20 -39 46 -42 57 -17
90 l17 24 42 -41 c32 -32 40 -45 33 -57z"/>
<path d="M9925 9988 c-85 -13 -91 -22 -78 -105 16 -102 26 -121 67 -128 45 -9
94 2 105 23 6 11 5 54 0 107 -11 99 -14 116 -26 114 -4 -1 -35 -6 -68 -11z"/>
<path d="M16442 9973 c-11 -21 -26 -83 -19 -83 2 0 16 18 30 39 22 33 24 41
12 51 -11 9 -16 7 -23 -7z"/>
<path d="M15607 9973 c-15 -14 -7 -43 12 -43 23 0 34 23 18 39 -13 13 -21 14
-30 4z"/>
<path d="M16242 9958 c4 -30 43 -33 43 -3 0 13 -8 21 -23 23 -20 3 -23 0 -20
-20z"/>
<path d="M9180 9881 c-13 -9 -13 -10 0 -15 8 -2 30 -9 49 -15 44 -14 43 -15
39 12 -2 17 -10 23 -38 25 -19 1 -42 -2 -50 -7z"/>
<path d="M8750 9854 c-14 -8 -17 -13 -7 -10 10 3 42 6 70 6 37 0 48 3 37 10
-22 14 -72 11 -100 -6z"/>
<path d="M15500 9857 c0 -8 7 -21 16 -28 14 -11 15 -10 12 11 -3 26 -28 41
-28 17z"/>
<path d="M16026 9841 c-3 -4 1 -17 9 -27 10 -15 16 -16 26 -7 6 6 9 19 6 27
-7 17 -32 22 -41 7z"/>
<path d="M16242 9836 c-17 -9 -20 -14 -10 -24 16 -16 48 -15 48 1 0 27 -14 36
-38 23z"/>
<path d="M9567 9812 c-10 -10 -17 -24 -17 -31 0 -7 38 -50 83 -94 46 -45 89
-91 95 -103 10 -18 1 -31 -78 -116 -87 -93 -88 -95 -83 -136 3 -23 10 -42 16
-42 25 0 83 49 156 133 123 140 121 166 -24 315 -94 96 -118 108 -148 74z"/>
<path d="M8058 9783 c7 -3 16 -2 19 1 4 3 -2 6 -13 5 -11 0 -14 -3 -6 -6z"/>
<path d="M15682 9700 c49 -26 142 -50 193 -49 33 1 21 6 -65 28 -58 15 -118
31 -135 34 -28 7 -28 6 7 -13z"/>
<path d="M9470 9694 c0 -5 51 -117 80 -174 9 -19 47 -25 66 -10 29 25 15 55
-55 123 -62 60 -91 79 -91 61z"/>
<path d="M9917 9438 c-23 -17 -45 -188 -28 -224 12 -27 33 -31 54 -10 15 15
43 206 33 231 -7 18 -36 20 -59 3z"/>
<path d="M10382 8983 c-40 -20 -124 -110 -238 -257 -48 -61 -89 -111 -93 -111
-3 0 -43 41 -87 90 -183 203 -238 239 -315 208 -30 -12 -39 -21 -39 -39 l0
-25 38 22 c59 34 82 23 207 -104 61 -62 124 -131 141 -152 l32 -40 -80 -110
c-213 -294 -231 -316 -255 -310 -27 6 -32 -15 -9 -35 30 -24 68 13 208 205 76
105 143 197 148 205 12 19 34 -5 161 -175 144 -194 139 -188 155 -174 13 10
12 15 -4 33 -32 36 -172 234 -172 243 0 4 11 22 25 38 28 34 22 37 82 -49 66
-94 111 -83 195 49 91 144 75 211 -57 232 -45 7 -108 -30 -155 -91 -19 -25
-37 -45 -40 -45 -3 0 -24 17 -47 38 l-42 38 51 64 c96 120 171 200 201 215 29
15 63 15 100 -1 29 -12 21 30 -8 43 -35 16 -64 15 -103 -5z m105 -316 l42 -22
-62 -103 c-88 -147 -97 -149 -171 -46 l-46 65 63 64 c72 74 100 81 174 42z
m-323 -71 c20 -18 36 -37 36 -42 -1 -5 -12 -22 -25 -39 l-25 -30 -35 40 c-19
22 -34 44 -35 48 0 12 31 57 40 57 5 0 25 -15 44 -34z"/>
<path d="M9991 8970 c-18 -4 -37 -14 -42 -22 -17 -25 11 -166 38 -194 20 -20
119 -15 134 7 9 13 7 51 -7 172 l-6 47 -41 -1 c-23 -1 -57 -5 -76 -9z"/>
<path d="M9672 8808 c-28 -28 -13 -60 67 -137 117 -114 116 -104 20 -211 -44
-49 -88 -90 -96 -90 -10 0 -13 -6 -9 -16 3 -9 6 -29 6 -45 0 -25 4 -29 28 -29
21 0 46 19 116 92 49 51 97 107 107 123 43 69 16 127 -114 253 -73 71 -101 84
-125 60z"/>
<path d="M9635 8585 c4 -38 12 -76 18 -83 15 -19 57 -10 74 15 14 21 12 26
-42 80 l-56 58 6 -70z"/>
<path d="M13890 8640 c20 -13 33 -13 25 0 -3 6 -14 10 -23 10 -15 0 -15 -2 -2
-10z"/>
<path d="M14964 8435 c-12 -30 5 -65 31 -65 33 0 49 30 29 58 -17 25 -52 29
-60 7z"/>
<path d="M10038 8432 c-16 -2 -30 -11 -33 -23 -13 -39 -23 -184 -14 -206 9
-25 41 -31 56 -10 11 13 33 153 33 204 0 36 -5 40 -42 35z"/>
<path d="M12316 7503 c-4 -5 -55 -10 -113 -13 l-105 -5 82 -44 c45 -24 85 -39
89 -35 4 5 20 30 35 57 25 44 29 57 12 40z"/>
</g>
</svg>
